<svg width="149" height="150" viewBox="0 0 149 150" fill="none" xmlns="http://www.w3.org/2000/svg">
<mask id="mask0_19_6" style="mask-type:alpha" maskUnits="userSpaceOnUse" x="0" y="0" width="149" height="150">
<path d="M149 103.105L148.991 108.413C148.981 109.903 148.963 111.393 148.925 112.893C148.832 116.143 148.646 119.421 148.05 122.633C147.463 125.893 146.495 128.929 144.968 131.899C143.468 134.805 141.513 137.478 139.175 139.787C136.838 142.097 134.147 144.034 131.195 145.514C128.196 147.023 125.132 147.982 121.826 148.569C118.576 149.146 115.261 149.332 111.974 149.425C105.65 149.5 103.862 149.5 102.065 149.5H46.935C40.0437 149.481 38.5351 149.463 37.0265 149.425C33.7392 149.332 30.4239 149.146 27.1739 148.569C23.8772 147.982 20.8041 147.023 17.8055 145.514C14.8627 144.024 12.1621 142.097 9.82469 139.787C7.49656 137.478 5.54094 134.805 4.03231 131.899C2.50506 128.929 1.53656 125.893 0.949875 122.633C0.363187 119.421 0.167625 116.143 0.0838125 112.893C0.03725 111.403 0.018625 109.913 0.0093125 108.423L0 103.105V46.8949L0.0093125 41.5868C0.018625 40.0968 0.03725 38.6067 0.0838125 37.1074C0.176937 33.8574 0.363187 30.5794 0.949875 27.3666C1.53656 24.1072 2.50506 21.0713 4.03231 18.1006C5.53162 15.1858 7.48725 12.5224 9.82469 10.2129C12.1621 7.90344 14.8534 5.96644 17.8055 4.48575C20.8041 2.97713 23.8772 2.01794 27.1739 1.43125C30.4332 0.853875 33.7392 0.667625 37.0265 0.5745C43.359 0.5 45.147 0.5 46.935 0.5H100.594H81.4844H102.065C108.956 0.518625 110.465 0.53725 111.974 0.5745C115.261 0.667625 118.576 0.853875 121.826 1.43125C125.132 2.01794 128.196 2.97713 131.195 4.48575C134.137 5.97575 136.838 7.90344 139.175 10.2129C141.503 12.5224 143.468 15.1858 144.968 18.1006C146.495 21.0713 147.463 24.0979 148.05 27.3666C148.637 30.5794 148.832 33.8574 148.925 37.1074C148.963 38.5974 148.981 40.0874 148.991 41.5774L149 46.8949V103.105V103.105Z" fill="white"/>
</mask>
<g mask="url(#mask0_19_6)">
<path fill-rule="evenodd" clip-rule="evenodd" d="M0 0.5H149V149.5H0V0.5Z" fill="#D80C18"/>
<path fill-rule="evenodd" clip-rule="evenodd" d="M108.228 71.5811L59.179 124.094C58.8624 124.43 58.2943 124.169 58.3502 123.703L63.826 79.2267H41.1221C40.703 79.2267 40.4888 78.7238 40.7682 78.4165L89.8172 25.9126C90.1338 25.568 90.7018 25.8288 90.646 26.2944L85.1702 70.7709H107.865C108.293 70.7709 108.517 71.2738 108.228 71.5811V71.5811Z" fill="white"/>
</g>
</svg>
