<svg width="133" height="32" viewBox="0 0 133 32" fill="none" xmlns="http://www.w3.org/2000/svg">
<path fill-rule="evenodd" clip-rule="evenodd" d="M21.7512 14.8L5.96716 31.756C5.86516 31.866 5.68116 31.781 5.70016 31.631L7.46016 17.268H0.156162C0.020162 17.268 -0.050838 17.106 0.042162 17.006L15.8262 0.0499667C15.9292 -0.0600333 16.1122 0.0249666 16.0942 0.174967L14.3342 14.538H21.6372C21.7732 14.538 21.8442 14.7 21.7512 14.8ZM79.4002 2.55497V29.65H75.3702V16.132H72.7702V29.136H68.8002V2.70497H72.7712V12.029H75.3712V2.55497H79.4012H79.4002ZM94.7002 18.458C95.4572 18.458 96.1932 18.463 96.9102 18.473C97.6242 18.485 98.2542 18.509 98.8002 18.548C101.057 18.686 102.807 19.198 104.046 20.081C105.286 20.963 105.906 22.288 105.906 24.054C105.906 25.82 105.286 27.14 104.046 28.014C102.806 28.886 101.056 29.402 98.7992 29.562C98.2742 29.601 97.6542 29.625 96.9392 29.635C96.2222 29.645 95.4812 29.649 94.7162 29.649C93.9492 29.649 93.2082 29.644 92.4922 29.635C91.7772 29.625 91.1572 29.601 90.6322 29.562C88.3742 29.402 86.6252 28.886 85.3842 28.014C84.1442 27.14 83.5242 25.82 83.5242 24.054C83.5242 22.288 84.1442 20.97 85.3842 20.096C86.6252 19.224 88.3742 18.708 90.6322 18.548C91.1572 18.528 91.7772 18.509 92.4922 18.488C93.2082 18.468 93.9442 18.458 94.7002 18.458V18.458ZM133 2.55497V29.65H128.877V16.343H124.754V12.422H128.877V2.55497H133ZM34.8452 20.225V25.41H51.7182V29.06H30.5132V20.225H34.8452V20.225ZM67.0322 3.14497C66.7882 5.87297 66.3762 8.41297 65.7952 10.764C65.2152 13.114 64.5282 15.309 63.7342 17.344C62.9392 19.383 62.0642 21.269 61.1072 23.011C60.1492 24.751 59.1732 26.374 58.1752 27.882L54.6632 25.712C55.6192 24.351 56.5162 22.909 57.3512 21.393C58.1852 19.875 58.9342 18.314 59.5952 16.703C60.2562 15.096 60.8272 13.468 61.3052 11.818C61.7842 10.17 62.1452 8.53997 62.3902 6.93197H55.4272V3.14397L67.0322 3.14497ZM124.193 3.14497V6.87897H114.845V12.72H123.538V16.335H114.845V23.409L127.11 22.929V26.482L110.618 27.293V3.14397H124.193V3.14497ZM94.7152 21.97C94.0292 21.97 93.3592 21.98 92.7032 21.999C92.0482 22.021 91.4682 22.049 90.9632 22.089C89.9362 22.188 89.1952 22.406 88.7412 22.745C88.2872 23.081 88.0612 23.518 88.0612 24.053C88.0612 24.591 88.2872 25.026 88.7412 25.363C89.1952 25.7 89.9362 25.918 90.9632 26.017C91.4682 26.058 92.0482 26.087 92.7032 26.107C93.3592 26.127 94.0292 26.136 94.7152 26.136C95.4002 26.136 96.0702 26.126 96.7262 26.107C97.3812 26.087 97.9602 26.058 98.4652 26.017C99.4942 25.917 100.235 25.7 100.689 25.363C101.142 25.026 101.369 24.591 101.369 24.053C101.369 23.518 101.142 23.081 100.689 22.745C100.235 22.405 99.4942 22.188 98.4652 22.088C97.9602 22.05 97.3812 22.021 96.7262 21.998C96.0702 21.979 95.4002 21.97 94.7152 21.97ZM51.7182 2.55497V21.992H47.4592V12.394H43.5012V18.207H28.7462V2.85597H33.0052V7.00597H39.2432V2.85597H43.5002V8.45897H47.4582V2.55497H51.7172H51.7182ZM98.3522 3.14497V6.86497H93.4082C93.0422 7.54797 92.6352 8.24797 92.1772 8.96997C92.1032 9.08797 92.0172 9.20397 91.9422 9.31997L99.4272 14.218L97.0692 17.48L89.8372 12.275C89.8002 12.323 89.7672 12.371 89.7302 12.418C88.8352 13.555 87.8902 14.65 86.8962 15.698C85.9012 16.745 84.9162 17.664 83.9432 18.458L81.1682 15.651C81.9442 15.04 82.7192 14.345 83.4952 13.561C84.2712 12.779 85.0212 11.954 85.7472 11.091C86.4732 10.227 87.1492 9.33297 87.7772 8.40697C88.1252 7.89097 88.4422 7.37697 88.7372 6.86497H82.6002V3.14497H98.3522V3.14497ZM104.77 2.55497V8.09997H107.673V12.06H104.77V18.46H100.605V2.55397H104.77V2.55497ZM39.2432 10.578H33.0052V14.575H39.2432V10.578Z" fill="#D80C18"/>
</svg>
